<?xml version="1.0" standalone="no"?>
<!DOCTYPE svg PUBLIC "-//W3C//DTD SVG 20010904//EN"
 "http://www.w3.org/TR/2001/REC-SVG-20010904/DTD/svg10.dtd">
<svg version="1.0" xmlns="http://www.w3.org/2000/svg"
 width="2527.000000pt" height="2550.000000pt" viewBox="0 0 2527.000000 2550.000000"
 preserveAspectRatio="xMidYMid meet">

<g transform="translate(0.000000,2550.000000) scale(0.100000,-0.100000)"
fill="#000000" stroke="none">
<path d="M12105 24699 c-154 -4 -352 -12 -440 -18 -211 -15 -496 -41 -515 -46
-9 -3 -47 -7 -85 -10 -39 -3 -83 -8 -100 -12 -31 -7 -46 -8 -108 -11 -22 -1
-36 -6 -32 -12 3 -6 -1 -7 -10 -4 -20 8 -196 -16 -190 -26 2 -4 -6 -5 -18 -3
-39 8 -729 -120 -735 -136 -1 -5 -14 -6 -29 -3 -19 4 -24 2 -18 -8 6 -9 4 -11
-4 -5 -7 4 -31 2 -54 -3 -23 -6 -129 -32 -234 -58 -106 -26 -190 -51 -187 -55
3 -5 -2 -6 -10 -3 -13 5 -57 -5 -106 -23 -8 -3 -24 -8 -35 -10 -49 -9 -462
-137 -515 -160 -8 -3 -20 -7 -27 -9 -30 -6 -119 -37 -129 -45 -6 -5 -14 -6
-17 -2 -4 3 -7 2 -7 -4 0 -6 -6 -10 -12 -9 -25 2 -237 -78 -231 -87 3 -6 2 -7
-4 -4 -12 7 -175 -52 -185 -67 -4 -6 -8 -8 -8 -4 0 7 -67 -16 -135 -47 -16 -8
-59 -25 -94 -40 -36 -14 -76 -35 -90 -48 -14 -12 -19 -14 -12 -5 11 15 -279
-109 -379 -162 -19 -10 -81 -40 -137 -66 -57 -26 -103 -52 -103 -57 0 -6 -3
-8 -6 -4 -16 16 -891 -473 -902 -504 -2 -5 -7 -7 -12 -4 -4 2 -19 -5 -32 -18
-14 -12 -30 -23 -36 -24 -25 -6 -191 -120 -185 -128 5 -4 3 -5 -4 -2 -6 4 -18
0 -26 -8 -9 -8 -18 -15 -21 -15 -18 0 -175 -114 -169 -123 3 -5 1 -7 -4 -4 -6
4 -50 -21 -99 -55 -121 -84 -277 -198 -289 -212 -5 -6 -28 -23 -50 -38 -22
-14 -51 -35 -65 -46 -14 -11 -92 -74 -175 -139 -82 -66 -163 -131 -180 -146
-16 -14 -60 -51 -97 -82 -38 -31 -68 -61 -68 -66 0 -6 -4 -8 -8 -5 -12 7 -64
-49 -55 -59 5 -4 3 -5 -4 -1 -18 10 -269 -220 -571 -521 -156 -156 -250 -257
-246 -265 4 -6 3 -8 -3 -5 -12 7 -219 -218 -215 -233 1 -6 -2 -9 -8 -8 -14 4
-130 -133 -123 -145 3 -6 1 -7 -5 -3 -13 8 -54 -43 -45 -57 3 -5 1 -7 -4 -4
-10 6 -82 -70 -79 -84 0 -3 -14 -19 -32 -34 -18 -15 -31 -29 -29 -31 2 -2 -16
-25 -40 -51 -24 -27 -41 -54 -38 -61 3 -7 1 -11 -4 -7 -8 5 -101 -102 -99
-115 0 -3 -15 -21 -33 -41 -51 -55 -272 -359 -272 -375 0 -7 -3 -11 -6 -9 -11
6 -173 -234 -165 -246 4 -7 3 -9 -3 -6 -18 11 -406 -602 -406 -641 0 -6 -3
-10 -5 -7 -9 8 -81 -128 -75 -140 4 -5 2 -7 -2 -2 -10 8 -106 -163 -99 -175 3
-4 0 -8 -6 -8 -5 0 -25 -30 -44 -67 -18 -38 -55 -108 -82 -158 -80 -149 -265
-549 -259 -563 3 -7 1 -11 -3 -8 -5 3 -23 -30 -41 -72 -18 -42 -39 -89 -47
-103 -7 -15 -15 -35 -17 -45 -2 -11 -10 -33 -19 -49 -53 -101 -282 -720 -274
-742 3 -8 2 -12 -2 -9 -4 2 -20 -34 -35 -81 -24 -71 -26 -87 -15 -101 11 -15
11 -15 -3 -4 -14 11 -24 -12 -84 -215 -37 -126 -68 -240 -69 -255 -1 -14 -3
-25 -6 -23 -10 6 -73 -253 -65 -266 5 -7 4 -10 -2 -6 -8 5 -83 -291 -98 -388
-3 -16 -16 -84 -30 -150 -101 -475 -181 -1114 -215 -1725 -15 -251 -15 -929 0
-1180 41 -744 133 -1396 292 -2087 24 -106 46 -179 51 -176 6 4 7 1 2 -6 -10
-17 56 -271 69 -264 5 3 6 1 2 -6 -19 -29 313 -1058 345 -1069 5 -2 7 -7 4
-12 -5 -8 102 -286 132 -343 9 -17 18 -39 20 -47 3 -20 84 -203 92 -210 3 -3
7 -12 9 -20 8 -36 265 -579 280 -590 4 -3 34 -58 66 -123 74 -147 261 -478
276 -487 7 -4 11 -10 11 -14 -3 -16 31 -66 41 -60 7 4 8 3 4 -5 -9 -14 58
-124 69 -113 5 4 5 2 1 -5 -14 -24 465 -734 645 -957 5 -6 43 -55 85 -109 43
-56 80 -94 86 -91 7 4 8 2 4 -5 -6 -10 64 -104 146 -196 9 -11 38 -46 64 -77
25 -32 51 -55 57 -51 5 3 7 2 4 -4 -7 -12 109 -149 123 -146 6 2 9 -1 7 -6 -4
-16 104 -132 115 -125 7 4 8 2 4 -4 -11 -17 410 -456 427 -445 6 3 7 2 4 -4
-11 -18 467 -458 486 -447 7 4 9 3 4 -1 -9 -10 43 -66 55 -59 4 3 8 1 8 -5 0
-5 30 -35 68 -66 37 -31 81 -68 97 -82 17 -15 98 -80 180 -146 83 -65 161
-128 175 -139 14 -11 43 -32 65 -46 22 -15 45 -32 50 -38 12 -14 168 -128 289
-212 49 -34 93 -59 99 -55 5 3 7 1 4 -4 -6 -9 151 -123 169 -123 3 0 12 -7 21
-15 8 -8 20 -12 26 -8 7 3 9 2 4 -2 -6 -8 160 -122 185 -128 6 -1 22 -12 36
-24 13 -13 28 -20 32 -18 5 3 10 1 12 -4 11 -31 886 -520 902 -504 3 4 6 2 6
-4 0 -5 46 -31 103 -57 56 -26 118 -56 137 -66 100 -53 390 -177 379 -162 -7
9 -2 7 12 -5 14 -13 54 -34 90 -48 35 -15 78 -32 94 -40 68 -31 135 -54 135
-47 0 4 4 2 8 -4 10 -15 173 -74 185 -67 6 3 7 2 4 -4 -6 -9 206 -89 231 -87
6 1 12 -3 12 -9 0 -6 3 -7 7 -4 3 4 11 3 17 -2 10 -8 99 -39 129 -45 7 -2 19
-6 27 -9 53 -23 466 -151 515 -160 11 -2 27 -7 35 -10 49 -18 93 -28 106 -23
8 3 13 2 10 -3 -3 -4 81 -29 187 -55 105 -26 211 -52 234 -58 23 -5 47 -7 54
-3 8 6 10 4 4 -5 -6 -10 -1 -12 18 -8 15 3 28 2 29 -3 6 -16 696 -144 735
-136 12 2 20 1 18 -3 -6 -10 170 -34 190 -26 9 3 13 2 10 -4 -4 -6 10 -11 32
-12 62 -3 77 -4 108 -11 17 -4 61 -9 100 -12 38 -3 76 -7 85 -10 14 -4 257
-26 430 -40 372 -28 1064 -35 1445 -15 358 19 865 66 865 81 0 4 10 5 22 1 16
-4 19 -2 13 9 -7 11 -6 12 6 2 12 -10 51 -7 184 12 94 14 193 30 220 36 28 5
60 10 72 10 12 -1 25 4 28 9 4 6 10 8 15 5 9 -6 171 21 200 32 8 3 18 5 22 5
18 -4 654 137 698 154 8 3 26 8 40 10 26 5 181 48 235 64 17 6 108 33 203 61
178 52 588 188 652 216 19 9 41 17 49 19 35 7 211 78 211 85 0 5 6 6 14 3 7
-3 20 1 27 9 8 7 19 12 26 10 6 -2 14 1 18 6 3 6 13 11 20 11 8 0 40 12 72 27
32 14 60 27 63 27 31 5 217 93 213 100 -3 5 -2 6 4 3 15 -9 94 24 86 36 -3 6
-1 7 5 3 18 -11 680 310 690 336 2 4 8 6 13 2 5 -3 9 0 9 6 0 6 5 8 10 5 6 -3
10 -2 10 2 0 5 16 15 35 22 21 7 33 17 29 23 -4 7 -2 8 4 4 14 -8 73 24 66 36
-3 4 1 6 8 3 14 -5 317 167 330 188 4 6 8 8 8 2 0 -5 6 -3 13 5 7 8 18 16 24
17 28 6 181 107 176 116 -3 6 -1 7 5 3 14 -8 255 147 245 159 -5 4 -3 5 3 2
15 -8 508 333 628 434 6 5 38 30 71 55 33 26 59 50 58 55 -2 5 1 8 7 6 16 -4
171 124 164 135 -4 7 -2 8 5 4 32 -20 993 856 974 887 -3 6 -2 7 4 4 18 -11
518 537 506 556 -3 5 -1 7 4 4 6 -4 43 33 82 81 39 48 77 94 85 102 41 43 75
94 69 103 -3 5 -2 7 4 4 12 -7 146 158 146 179 0 8 3 12 5 9 8 -8 32 16 26 26
-3 5 -1 9 4 9 6 0 47 51 92 113 46 61 91 123 101 137 82 112 108 153 103 162
-4 6 -3 8 3 5 8 -5 173 220 173 237 0 3 8 15 18 26 9 11 26 36 37 54 11 19 54
87 96 152 42 66 87 139 100 163 13 25 31 53 39 62 8 10 28 44 44 76 16 32 33
60 36 63 9 6 196 342 244 438 20 40 34 78 30 84 -4 7 -3 8 4 4 14 -8 36 30 26
46 -4 6 -3 8 3 5 11 -7 46 62 184 360 117 253 130 283 121 283 -4 0 -2 4 4 8
12 8 90 188 159 368 26 66 55 140 66 166 10 25 20 55 22 65 2 10 8 27 14 38
22 39 204 595 199 604 -4 5 -2 11 3 13 12 4 151 486 175 608 3 14 17 72 31
130 14 57 23 110 20 118 -2 7 -1 11 3 8 10 -6 46 160 38 173 -4 5 -2 11 2 13
14 5 126 610 120 647 -1 9 1 21 5 27 9 15 62 437 81 649 65 729 65 1461 0
2190 -19 212 -72 634 -81 649 -4 6 -6 18 -5 27 6 35 -106 642 -118 647 -5 2
-6 11 -4 20 3 9 -16 103 -41 207 -25 105 -48 201 -51 215 -41 195 -250 893
-265 885 -4 -3 -5 5 -1 17 4 16 2 19 -8 13 -9 -5 -11 -4 -6 4 7 11 -30 136
-62 211 -9 19 -17 44 -19 55 -2 10 -10 30 -18 42 -9 13 -13 23 -10 23 3 0 -4
24 -16 53 -11 28 -34 89 -50 135 -19 50 -35 79 -41 75 -7 -4 -8 -1 -4 6 9 14
-72 221 -86 221 -5 0 -7 4 -3 9 5 8 -31 97 -45 111 -3 3 -6 12 -8 20 -13 61
-292 641 -305 633 -6 -3 -7 -1 -4 4 9 14 -277 553 -303 573 -4 3 -20 31 -36
63 -16 32 -37 67 -46 77 -10 11 -18 24 -18 30 0 6 -5 8 -12 4 -7 -4 -8 -3 -4
4 12 20 -319 536 -337 525 -6 -3 -7 -1 -3 5 4 7 -30 64 -76 129 -77 110 -284
394 -320 438 -9 11 -63 79 -119 150 -154 195 -261 320 -271 317 -5 -1 -7 1 -4
6 10 17 -510 585 -527 575 -6 -3 -7 -2 -4 4 10 16 -504 511 -524 505 -5 -1 -8
2 -7 6 2 4 -22 29 -52 56 -30 26 -71 62 -90 80 -116 106 -291 246 -301 240 -7
-4 -9 -3 -5 4 7 11 -148 139 -164 134 -6 -1 -9 2 -8 7 2 5 -24 29 -57 55 -33
25 -65 50 -71 55 -120 101 -613 442 -628 434 -6 -3 -8 -2 -3 2 10 12 -231 167
-245 159 -6 -4 -8 -3 -5 3 5 9 -148 110 -176 116 -6 1 -17 9 -24 17 -7 8 -13
11 -13 5 0 -5 -4 -4 -8 2 -13 21 -316 193 -330 188 -7 -3 -11 -1 -8 3 7 12
-52 44 -66 36 -6 -4 -8 -3 -4 4 4 6 -8 16 -29 23 -19 7 -35 17 -35 22 0 4 -4
5 -10 2 -5 -3 -10 -1 -10 5 0 6 -4 9 -9 6 -5 -4 -11 -2 -13 2 -10 26 -672 347
-690 336 -6 -4 -8 -3 -5 3 8 12 -71 45 -86 36 -6 -3 -7 -2 -4 3 4 7 -182 95
-213 100 -3 0 -31 13 -63 27 -32 15 -64 27 -72 27 -7 0 -17 5 -20 11 -4 5 -12
8 -18 6 -7 -2 -18 3 -26 10 -7 8 -20 12 -27 9 -8 -3 -14 -2 -14 3 0 7 -176 78
-211 85 -8 2 -30 10 -49 19 -64 28 -474 164 -652 216 -95 28 -186 55 -203 61
-54 16 -209 59 -235 64 -14 2 -32 7 -40 10 -44 17 -680 158 -698 154 -4 0 -14
2 -22 5 -29 11 -191 38 -200 32 -5 -3 -11 -1 -15 5 -3 5 -16 10 -28 9 -12 0
-44 5 -72 10 -27 6 -126 22 -220 36 -133 19 -172 22 -184 12 -12 -10 -13 -9
-6 2 6 11 3 13 -13 9 -12 -4 -22 -3 -22 1 0 4 -71 15 -157 25 -543 58 -1061
79 -1628 65z m1110 -58 c264 -21 514 -45 643 -62 46 -6 92 -9 103 -6 10 3 17
2 14 -2 -2 -4 40 -13 93 -20 53 -7 203 -30 332 -52 129 -22 246 -42 260 -44
165 -25 830 -187 1087 -264 117 -35 116 -35 108 -18 -4 6 0 4 8 -5 11 -14 16
-15 26 -5 10 9 12 9 9 -2 -2 -9 52 -31 182 -74 102 -33 195 -61 207 -61 11 -1
19 -4 18 -7 -2 -3 51 -25 118 -48 67 -23 131 -46 142 -51 52 -24 341 -133 352
-133 7 0 13 -4 13 -8 0 -3 8 -9 18 -12 9 -2 26 -8 36 -13 15 -6 17 -4 11 7 -5
8 -5 11 1 6 5 -5 8 -11 6 -14 -6 -10 268 -124 280 -117 6 4 8 3 5 -3 -7 -11
40 -36 53 -28 5 3 10 1 12 -4 5 -16 279 -141 292 -134 6 3 8 2 3 -2 -4 -5 73
-50 170 -100 263 -135 347 -179 353 -185 3 -3 52 -32 110 -65 58 -32 133 -76
168 -97 35 -21 68 -35 74 -32 6 4 8 3 5 -3 -4 -6 8 -18 26 -27 17 -9 88 -52
156 -96 68 -44 129 -76 135 -73 6 3 8 2 3 -2 -9 -11 133 -106 147 -98 6 3 8 2
3 -2 -9 -11 43 -46 57 -38 6 3 8 3 4 -2 -4 -4 64 -57 150 -118 169 -119 336
-242 501 -371 57 -44 109 -80 115 -78 6 2 8 1 4 -3 -4 -4 21 -30 55 -58 34
-28 97 -80 141 -116 43 -36 84 -64 90 -63 6 2 8 1 4 -3 -3 -4 50 -57 120 -118
160 -142 262 -236 383 -353 53 -52 99 -91 104 -86 4 4 5 2 2 -4 -3 -6 63 -80
148 -164 85 -84 160 -161 167 -170 44 -60 273 -298 281 -293 6 4 7 1 2 -6 -8
-14 53 -83 66 -75 5 3 7 -1 4 -8 -3 -7 21 -42 54 -77 32 -35 59 -65 59 -68 2
-12 146 -182 152 -178 4 2 7 -1 7 -8 0 -13 145 -204 169 -223 8 -6 14 -14 14
-17 0 -9 242 -342 252 -345 4 -2 8 -7 8 -11 0 -16 293 -446 302 -443 5 1 7 -2
3 -7 -5 -10 149 -270 167 -282 5 -3 10 -10 10 -15 0 -5 38 -76 85 -159 47 -82
106 -188 131 -235 24 -47 55 -103 67 -125 28 -51 198 -392 251 -505 22 -47 51
-107 64 -135 13 -27 25 -54 26 -60 1 -5 21 -53 44 -105 63 -143 171 -409 225
-557 27 -72 52 -130 56 -127 4 2 5 -5 2 -16 -3 -12 0 -20 6 -20 7 0 10 -4 7
-9 -6 -9 49 -168 65 -187 5 -6 7 -13 4 -16 -3 -2 8 -43 24 -89 16 -46 37 -112
46 -146 10 -35 22 -63 27 -63 5 0 7 -4 4 -8 -3 -5 19 -92 48 -193 29 -101 66
-234 82 -296 16 -61 31 -110 35 -108 3 2 5 -6 4 -18 -2 -21 39 -208 52 -237 3
-8 6 -18 5 -22 -1 -4 9 -58 23 -120 48 -226 125 -658 150 -848 80 -608 103
-962 103 -1620 0 -652 -26 -1062 -103 -1620 -9 -67 -38 -248 -56 -353 -11 -65
-17 -122 -14 -127 3 -4 2 -10 -2 -12 -5 -1 -32 -120 -61 -263 -28 -143 -55
-271 -59 -284 -5 -19 -3 -22 8 -17 8 4 7 1 -2 -6 -19 -15 -44 -122 -33 -139 4
-7 3 -9 -3 -6 -11 7 -36 -89 -27 -104 3 -5 1 -9 -4 -9 -5 0 -12 -12 -15 -28
-3 -15 -17 -70 -31 -122 -15 -52 -28 -101 -30 -110 -2 -8 -6 -22 -9 -30 -10
-25 -90 -294 -92 -310 -1 -8 -5 -22 -9 -30 -3 -8 -19 -55 -36 -104 -23 -68
-27 -92 -18 -103 8 -10 8 -12 -3 -8 -10 4 -22 -18 -42 -77 -38 -111 -86 -246
-102 -283 -7 -16 -24 -61 -38 -100 -26 -73 -119 -299 -181 -442 -19 -46 -32
-83 -28 -83 4 0 1 -4 -6 -9 -7 -4 -15 -14 -16 -22 -4 -19 -100 -223 -228 -482
-59 -119 -107 -220 -107 -223 0 -4 -3 -10 -8 -13 -18 -12 -103 -182 -97 -193
4 -6 3 -8 -3 -5 -10 6 -92 -131 -85 -141 2 -3 0 -8 -5 -11 -20 -13 -273 -444
-266 -454 3 -6 1 -7 -5 -3 -13 8 -34 -27 -24 -40 4 -5 3 -6 -1 -2 -8 6 -253
-352 -248 -361 2 -2 -2 -7 -7 -10 -15 -9 -252 -340 -252 -351 0 -6 -5 -10 -10
-10 -6 0 -13 -6 -16 -14 -3 -8 -18 -30 -34 -48 -67 -77 -230 -289 -230 -297 0
-6 -6 -14 -14 -18 -23 -13 -135 -150 -129 -157 4 -3 2 -6 -4 -6 -5 0 -38 -33
-72 -73 -35 -39 -93 -106 -130 -147 -116 -128 -131 -147 -123 -155 4 -5 2 -5
-4 -2 -7 4 -31 -14 -54 -41 -24 -26 -108 -114 -189 -195 -80 -81 -146 -153
-146 -160 0 -7 -5 -12 -11 -12 -6 0 -80 -66 -165 -146 -208 -199 -416 -382
-641 -566 -48 -39 -84 -74 -80 -78 4 -4 2 -5 -4 -3 -6 2 -58 -34 -115 -78
-165 -129 -332 -252 -501 -371 -86 -61 -154 -114 -150 -118 4 -5 2 -5 -4 -2
-14 8 -66 -27 -57 -38 5 -4 3 -5 -3 -2 -14 8 -156 -87 -147 -98 5 -4 3 -5 -3
-2 -6 3 -67 -29 -135 -73 -68 -44 -139 -87 -156 -96 -18 -9 -30 -21 -26 -27 3
-6 1 -7 -5 -3 -6 3 -39 -11 -74 -32 -35 -21 -110 -65 -168 -97 -58 -33 -107
-62 -110 -65 -6 -6 -90 -50 -353 -185 -97 -50 -174 -95 -170 -100 5 -4 3 -5
-3 -2 -13 7 -287 -118 -292 -134 -2 -5 -7 -7 -12 -4 -13 8 -60 -17 -53 -28 3
-6 1 -7 -5 -3 -12 7 -285 -107 -276 -116 3 -3 0 -9 -7 -14 -8 -5 -10 -3 -4 6
6 10 4 11 -11 6 -10 -5 -27 -11 -36 -13 -10 -3 -18 -9 -18 -12 0 -4 -6 -8 -13
-8 -11 0 -300 -109 -352 -133 -11 -5 -75 -28 -142 -51 -67 -23 -120 -45 -118
-48 1 -3 -7 -6 -18 -7 -12 0 -105 -28 -207 -61 -130 -43 -184 -65 -182 -74 3
-11 1 -11 -9 -2 -10 10 -15 9 -26 -5 -8 -9 -12 -11 -8 -5 8 17 9 17 -108 -18
-257 -77 -922 -239 -1087 -264 -14 -2 -131 -22 -260 -44 -129 -22 -279 -45
-332 -52 -53 -7 -95 -16 -93 -20 3 -4 -4 -5 -14 -2 -11 3 -57 0 -103 -6 -129
-17 -379 -41 -643 -62 -173 -14 -1246 -20 -1410 -9 -66 5 -163 11 -215 14
-176 10 -533 48 -770 81 -58 8 -121 17 -140 19 -19 2 -129 21 -245 41 -115 20
-221 38 -235 40 -14 1 -32 5 -40 8 -8 3 -85 20 -170 37 -827 166 -1803 495
-2622 884 -76 35 -138 62 -138 58 0 -4 -4 -2 -8 4 -10 16 -268 144 -276 137
-3 -4 -6 -1 -6 5 0 6 -35 29 -77 50 -43 22 -102 53 -131 71 -29 17 -55 31 -57
31 -1 0 -42 23 -89 51 -47 27 -91 47 -98 43 -6 -4 -8 -3 -5 2 6 11 -148 107
-170 107 -7 0 -11 3 -8 5 8 8 -105 73 -116 66 -5 -3 -8 -1 -7 4 2 6 -64 53
-146 106 -82 53 -187 123 -233 154 -46 31 -92 62 -101 67 -9 6 -20 15 -24 20
-4 6 -8 7 -8 3 0 -4 -15 6 -32 23 -18 16 -38 29 -45 29 -7 0 -13 5 -13 11 0 6
-7 8 -16 5 -8 -3 -13 -2 -10 3 3 5 -58 55 -137 112 -147 107 -362 276 -551
433 -60 50 -114 90 -120 88 -6 -2 -8 -1 -4 3 9 9 -113 116 -124 109 -5 -3 -7
-1 -6 4 2 5 -27 38 -65 72 -37 34 -67 60 -67 57 0 -3 -28 24 -62 59 -33 35
-64 64 -68 64 -3 0 -118 113 -256 250 -137 138 -254 248 -261 246 -7 -3 -10 1
-6 10 3 9 -22 43 -68 92 -41 42 -118 128 -173 189 -54 62 -102 111 -106 108
-3 -2 -7 2 -7 9 0 20 -194 246 -206 239 -6 -3 -7 -1 -3 6 8 12 -56 98 -103
138 -14 13 -21 23 -16 23 7 0 7 3 0 8 -5 4 -43 51 -83 105 -42 55 -78 94 -84
90 -7 -3 -8 -1 -4 5 9 15 -101 165 -114 157 -5 -3 -7 0 -5 7 3 7 -16 42 -41
78 -26 35 -96 136 -156 225 -61 88 -114 159 -120 157 -5 -1 -7 2 -4 7 3 5 -40
83 -97 173 -117 187 -143 229 -170 278 -11 19 -23 37 -26 40 -4 3 -15 22 -24
43 -10 20 -21 37 -26 37 -4 0 -8 6 -8 13 0 6 -33 71 -73 142 -40 72 -126 232
-190 358 -64 125 -120 224 -125 220 -4 -5 -5 -3 -2 4 4 6 -24 78 -62 160 -207
446 -388 908 -537 1368 -38 116 -69 212 -69 215 -9 47 -18 69 -27 64 -7 -5 -8
-2 -3 5 9 16 -14 103 -26 95 -5 -3 -6 2 -3 10 5 13 -15 102 -33 146 -3 8 -6
17 -5 20 2 14 -75 290 -80 285 -3 -3 -4 6 -2 20 1 14 -8 64 -21 111 -13 46
-21 84 -18 84 2 0 1 5 -3 12 -4 7 -8 21 -9 32 -4 49 -69 351 -77 354 -4 2 -6
8 -3 12 6 9 -12 132 -22 160 -3 8 -5 25 -4 38 1 12 -1 22 -6 22 -4 0 -8 15 -8
33 -1 38 -54 415 -62 437 -4 8 -5 19 -4 23 1 5 -10 120 -23 255 -46 455 -51
578 -51 1192 0 614 5 737 51 1193 14 136 22 252 19 257 -3 5 -1 11 4 14 4 3
12 34 15 68 6 51 29 205 61 413 7 51 34 191 71 379 20 98 37 188 38 200 2 11
6 28 9 36 7 17 79 327 82 350 1 8 4 22 7 30 21 64 30 93 32 113 2 12 6 29 9
37 3 8 13 42 22 75 66 240 220 717 299 923 20 52 34 98 30 103 -3 5 -1 9 3 9
13 0 35 68 27 81 -4 7 -3 9 3 6 8 -5 96 196 98 223 1 3 6 15 13 28 7 12 10 28
6 34 -4 7 -3 8 4 4 11 -7 16 7 15 41 -1 7 3 11 6 8 7 -4 46 82 53 115 2 8 6
17 9 20 9 7 118 250 112 250 -2 0 3 7 11 16 14 13 18 28 15 50 0 4 4 10 9 13
5 3 49 85 97 181 112 224 213 413 333 620 52 91 95 171 95 178 0 6 2 10 5 7 8
-7 122 186 116 196 -3 5 1 12 9 15 8 3 55 67 103 142 111 172 315 465 450 645
57 76 104 142 104 148 0 5 3 9 8 9 4 0 32 32 62 71 30 39 61 78 68 85 7 8 12
14 9 14 -2 0 18 24 45 53 26 28 46 58 43 65 -3 7 -1 11 4 8 7 -4 101 95 101
107 0 2 27 33 59 68 45 48 57 67 49 77 -8 9 -7 11 4 7 10 -4 42 26 97 87 107
121 172 189 359 380 99 101 151 161 146 169 -5 8 -3 9 5 5 12 -8 35 13 273
245 37 37 68 65 68 62 0 -3 30 23 67 57 38 34 67 67 65 72 -1 5 1 7 6 4 11 -7
133 100 124 109 -4 4 -2 5 4 3 6 -2 60 38 120 88 189 157 404 326 551 433 79
57 140 107 137 112 -3 5 2 6 10 3 9 -3 16 -1 16 5 0 6 6 11 13 11 7 0 27 13
45 29 17 17 32 27 32 23 0 -4 4 -2 8 3 4 6 15 15 24 20 9 6 55 36 101 67 46
31 151 101 233 154 82 53 148 100 146 106 -1 5 2 7 7 4 11 -7 124 58 116 66
-3 2 1 5 8 5 22 0 176 96 170 107 -3 5 -1 6 5 2 7 -4 51 16 98 43 47 28 88 51
89 51 2 0 28 14 57 31 29 18 88 49 131 71 42 21 77 44 77 50 0 6 3 9 6 5 8 -7
266 121 276 137 4 6 8 8 8 4 0 -4 62 23 138 58 819 389 1795 718 2622 884 85
17 162 34 170 37 8 3 26 7 40 8 14 2 120 20 235 40 116 20 226 39 245 41 19 2
82 11 140 19 236 33 592 71 770 81 52 3 147 9 210 14 162 11 1246 4 1415 -9z"/>
<path d="M11921 23968 c-118 -4 -216 -9 -217 -11 -3 -3 47 -781 51 -785 1 -1
94 2 206 8 112 5 293 10 402 10 l197 0 0 71 0 72 -299 -8 -298 -7 -6 39 c-4
21 -7 65 -7 99 l0 61 83 6 c45 4 166 7 270 7 l187 0 0 71 0 72 -275 -8 -275
-7 0 85 0 84 53 7 c28 3 163 6 300 6 l247 0 0 70 0 70 -202 -2 c-112 0 -299
-5 -417 -10z"/>
<path d="M12766 23958 c-2 -7 -9 -182 -14 -388 -8 -286 -8 -376 1 -382 7 -4
53 -8 103 -8 l91 0 6 48 c3 26 9 126 13 222 4 96 10 186 14 199 6 23 16 13
112 -111 58 -75 147 -192 197 -261 102 -139 88 -130 239 -143 45 -4 82 -3 82
2 0 5 20 180 45 389 24 209 43 381 41 382 -5 5 -217 26 -220 22 -2 -2 -14
-115 -27 -251 -13 -137 -25 -248 -28 -248 -4 1 -23 25 -43 54 -55 80 -310 406
-350 449 l-35 37 -112 0 c-81 0 -113 -3 -115 -12z"/>
<path d="M10981 23899 c-175 -34 -309 -121 -373 -242 -20 -36 -23 -57 -23
-152 0 -105 2 -114 33 -177 75 -152 231 -226 457 -215 235 11 383 86 455 230
16 33 28 62 26 65 -8 7 -208 32 -217 26 -5 -3 -9 -11 -9 -18 0 -6 -13 -33 -30
-59 -41 -65 -109 -99 -213 -105 -139 -8 -227 38 -265 141 -81 216 15 363 246
375 102 6 157 -13 205 -68 l32 -38 104 23 c56 13 105 25 107 28 10 10 -62 99
-104 127 -75 50 -158 70 -281 69 -58 -1 -126 -5 -150 -10z"/>
<path d="M13835 23829 c-4 -33 -4 -63 -1 -66 3 -3 75 -16 160 -27 86 -12 157
-24 160 -27 2 -2 -19 -145 -46 -318 -38 -238 -47 -315 -38 -321 14 -9 189 -35
194 -29 2 2 29 145 60 318 31 173 57 315 58 316 2 1 59 -8 128 -22 69 -13 143
-24 164 -26 l40 -2 12 60 c7 33 11 62 9 64 -14 13 -802 141 -871 141 -19 0
-23 -7 -29 -61z"/>
<path d="M14870 23713 c0 -5 -38 -177 -84 -383 -46 -206 -83 -376 -82 -377 0
-1 45 -12 99 -24 77 -18 100 -20 106 -10 4 6 23 77 41 157 31 133 35 144 56
144 36 0 139 -35 172 -59 42 -30 113 -139 176 -272 l54 -112 112 -34 c62 -19
115 -32 118 -29 5 6 -67 172 -120 279 -16 32 -47 79 -70 103 l-41 44 78 0 c99
0 149 15 196 60 90 86 68 228 -49 305 -76 50 -272 109 -631 189 -125 29 -131
29 -131 19z m400 -225 c163 -41 224 -70 240 -113 23 -61 -42 -113 -124 -100
-43 7 -357 83 -362 88 -1 1 7 41 19 89 20 85 22 87 46 81 15 -3 96 -23 181
-45z"/>
<path d="M9797 23685 c-54 -13 -101 -25 -103 -28 -3 -2 12 -70 32 -151 20 -81
35 -148 33 -150 -9 -6 -444 -114 -448 -111 -2 3 -22 68 -45 145 -23 78 -45
142 -50 142 -4 1 -52 -12 -106 -27 -65 -18 -100 -33 -100 -42 0 -13 227 -734
233 -740 7 -7 190 53 194 63 2 7 -16 81 -41 165 -25 84 -45 154 -43 155 4 5
421 114 433 114 7 0 28 -66 49 -152 21 -84 41 -158 44 -164 4 -8 29 -6 86 7
44 11 89 21 101 24 20 4 18 14 -62 367 -46 200 -86 373 -89 386 -3 12 -9 22
-13 21 -4 0 -51 -11 -105 -24z"/>
<path d="M8615 23346 c-132 -45 -312 -111 -400 -145 -88 -35 -168 -65 -177
-68 -10 -3 -18 -9 -18 -14 0 -12 48 -119 54 -119 2 0 68 25 146 55 78 30 147
55 154 55 8 0 60 -121 126 -292 62 -161 116 -296 119 -301 6 -6 184 53 197 65
2 2 -46 139 -106 303 -61 165 -110 302 -110 306 0 4 69 30 152 58 84 27 154
54 156 59 4 13 -34 116 -44 118 -5 2 -117 -34 -249 -80z"/>
<path d="M15987 23422 c-10 -17 -249 -744 -246 -746 2 -1 99 -35 214 -74 116
-39 284 -100 375 -135 114 -45 167 -61 172 -53 4 7 16 35 27 63 l20 52 -152
59 c-84 33 -206 79 -272 102 -66 24 -124 46 -128 50 -5 4 6 49 24 99 29 83 34
91 53 85 30 -9 382 -138 442 -162 l51 -21 21 52 c12 29 22 58 24 65 3 14 -102
57 -368 153 l-142 51 25 75 c14 41 31 77 37 79 12 5 296 -96 469 -165 43 -17
81 -31 86 -31 4 0 19 27 34 60 23 55 24 61 9 69 -77 40 -769 284 -775 273z"/>
<path d="M7763 23017 c-50 -23 -90 -43 -89 -47 2 -3 52 -111 111 -240 73 -157
110 -250 113 -281 4 -42 1 -50 -33 -88 -52 -58 -165 -112 -247 -118 -103 -8
-110 0 -257 283 l-126 242 -100 -50 c-55 -28 -101 -51 -102 -52 -4 -3 225
-424 250 -461 69 -102 121 -130 242 -129 99 1 173 23 310 92 192 96 275 188
275 305 0 68 -8 92 -127 365 -68 156 -102 222 -112 221 -9 0 -57 -19 -108 -42z"/>
<path d="M11960 22643 c-135 -6 -570 -44 -685 -59 -66 -9 -149 -20 -185 -25
-117 -15 -134 -18 -290 -44 -224 -38 -455 -85 -458 -94 -1 -5 -14 -6 -27 -3
-14 2 -25 0 -25 -7 0 -5 -6 -8 -14 -5 -7 3 -58 -7 -112 -21 -55 -14 -108 -27
-119 -29 -68 -10 -233 -60 -228 -69 4 -6 1 -7 -7 -2 -16 10 -107 -16 -460
-131 -138 -45 -431 -150 -553 -199 -12 -5 -16 -13 -12 -24 5 -13 4 -14 -6 -3
-14 13 -33 17 -26 5 3 -5 -5 -9 -16 -9 -12 -1 -49 -14 -82 -30 -33 -15 -62
-28 -65 -28 -25 -5 -190 -81 -190 -88 0 -5 -4 -6 -10 -3 -5 3 -10 1 -10 -5 0
-6 -4 -9 -9 -5 -12 7 -81 -25 -81 -37 0 -5 -4 -7 -8 -4 -9 5 -441 -207 -452
-222 -3 -4 -12 -8 -20 -10 -29 -7 -338 -186 -334 -194 3 -4 -2 -8 -11 -8 -27
0 -191 -100 -487 -298 -104 -68 -188 -128 -188 -133 0 -5 -6 -9 -14 -9 -7 0
-25 -11 -40 -25 -14 -13 -26 -22 -26 -20 0 6 -270 -197 -302 -228 -16 -14 -28
-23 -28 -20 0 3 -7 0 -15 -7 -8 -7 -12 -17 -8 -23 3 -5 1 -7 -4 -4 -11 7 -103
-60 -103 -74 0 -5 -5 -9 -11 -9 -11 0 -136 -102 -266 -219 -40 -35 -70 -68
-66 -74 3 -6 1 -7 -5 -3 -18 11 -436 -389 -425 -407 3 -6 2 -7 -4 -4 -13 8
-146 -127 -136 -138 4 -4 3 -5 -4 -2 -6 4 -26 -9 -45 -31 -18 -22 -73 -84
-123 -138 -157 -173 -175 -196 -168 -207 3 -5 1 -7 -5 -3 -13 8 -66 -59 -58
-73 4 -5 1 -13 -5 -17 -8 -4 -9 -3 -5 4 4 7 3 12 -3 12 -5 0 -14 -6 -18 -14
-9 -14 -56 -75 -87 -110 -80 -91 -216 -278 -210 -287 4 -7 3 -9 -4 -5 -6 3
-23 -12 -39 -34 -15 -23 -50 -71 -78 -108 -140 -189 -256 -365 -250 -380 2 -7
1 -11 -4 -8 -12 8 -103 -132 -95 -146 4 -6 3 -9 -2 -5 -9 5 -89 -114 -96 -142
-2 -8 -10 -22 -18 -30 -20 -21 -153 -258 -150 -267 1 -4 -2 -10 -7 -13 -17
-11 -123 -213 -117 -222 3 -5 1 -9 -5 -9 -8 0 -201 -378 -201 -394 0 -2 -16
-38 -36 -80 -19 -42 -32 -82 -28 -89 4 -6 3 -9 -1 -4 -11 10 -68 -120 -61
-139 3 -8 2 -13 -2 -10 -5 3 -16 -12 -25 -32 -48 -110 -64 -151 -119 -297
-120 -318 -315 -944 -342 -1095 -2 -14 -13 -61 -24 -105 -44 -177 -112 -514
-128 -630 -4 -27 -8 -59 -10 -70 -19 -102 -27 -156 -48 -325 -14 -107 -27
-224 -30 -260 -3 -36 -10 -116 -16 -178 -32 -339 -35 -1171 -7 -1512 28 -338
68 -665 101 -835 2 -11 7 -45 11 -75 4 -30 18 -109 32 -175 14 -66 25 -128 25
-138 -1 -9 3 -15 8 -12 6 3 7 -1 4 -9 -5 -13 27 -172 63 -311 8 -33 17 -72 20
-87 2 -14 13 -57 24 -95 11 -37 22 -78 25 -91 4 -21 49 -176 92 -322 35 -116
176 -530 199 -580 3 -8 7 -17 7 -20 9 -39 42 -108 49 -103 6 3 7 1 4 -4 -7
-11 23 -99 62 -185 11 -24 51 -115 90 -204 97 -222 170 -370 182 -366 6 1 7
-2 4 -8 -9 -14 107 -240 119 -233 5 4 6 1 2 -6 -13 -20 313 -588 329 -573 5 4
5 2 2 -4 -9 -15 228 -380 243 -376 7 1 9 -1 6 -6 -4 -8 51 -98 82 -133 7 -8
42 -57 79 -109 95 -134 360 -471 451 -571 12 -13 70 -79 128 -146 59 -68 111
-120 117 -116 6 3 7 1 3 -5 -14 -24 653 -680 677 -665 5 3 7 1 4 -5 -11 -16
463 -418 477 -405 3 3 6 1 6 -5 0 -13 188 -158 201 -155 5 2 9 -1 9 -6 0 -9
85 -74 105 -81 6 -2 15 -9 20 -15 22 -27 176 -125 187 -119 7 4 8 3 4 -4 -7
-11 108 -95 131 -95 7 0 10 -3 8 -6 -4 -8 244 -164 261 -164 7 0 11 -3 9 -7
-2 -4 8 -13 23 -21 15 -7 44 -24 64 -37 21 -14 42 -21 49 -16 7 4 9 3 5 -4 -8
-14 310 -196 326 -186 6 4 8 3 5 -3 -8 -12 559 -297 573 -288 6 3 10 1 10 -5
0 -6 5 -8 10 -5 6 3 10 2 10 -3 0 -7 171 -86 190 -87 3 -1 14 -6 25 -12 11 -6
22 -11 25 -11 3 0 34 -14 70 -30 36 -16 117 -48 180 -72 63 -23 153 -57 200
-75 74 -28 238 -83 510 -170 41 -13 86 -26 100 -29 14 -2 55 -14 91 -25 118
-37 471 -122 485 -117 8 3 14 2 14 -3 0 -5 12 -11 28 -14 15 -2 106 -20 202
-40 96 -20 234 -45 305 -57 162 -26 134 -22 450 -63 66 -9 149 -19 185 -22 36
-3 144 -12 240 -21 237 -21 958 -30 1212 -15 269 16 542 39 672 57 61 8 145
19 186 24 64 8 311 47 405 65 17 3 77 15 135 26 230 43 583 127 588 140 2 4 9
6 15 3 7 -2 44 5 82 16 39 12 76 22 83 22 6 1 12 4 12 8 0 3 8 6 18 7 17 1 57
10 57 13 0 1 11 3 24 6 48 9 196 58 199 66 2 4 7 6 12 3 4 -3 86 22 182 55
268 92 329 116 321 125 -5 4 -2 5 4 1 7 -4 27 0 45 8 18 8 50 20 71 26 22 7
34 16 31 22 -4 7 -2 8 4 4 10 -6 133 40 282 106 30 14 74 33 97 43 23 10 40
22 37 26 -3 5 1 6 9 3 21 -8 509 234 501 248 -4 7 -2 8 5 4 23 -14 417 212
814 467 26 17 47 35 47 40 0 6 3 7 6 4 6 -5 58 25 74 43 3 3 25 18 50 34 190
122 684 504 880 681 31 27 96 86 145 130 137 121 394 378 389 387 -3 5 -2 7 3
6 21 -7 318 306 307 324 -4 6 -3 8 3 5 11 -7 143 133 143 152 0 6 4 11 10 11
10 0 270 313 270 327 0 4 11 18 24 30 25 24 139 173 196 258 19 28 44 61 56
75 28 31 274 399 282 420 3 8 9 17 12 20 19 13 90 143 84 152 -4 6 -3 8 3 5
10 -6 63 79 177 280 25 45 46 85 46 89 0 3 9 18 19 33 30 41 136 255 134 269
0 7 1 11 5 8 6 -7 32 41 32 59 0 7 3 15 8 17 8 3 129 254 134 278 2 8 6 17 9
20 14 11 78 173 72 183 -3 5 -2 8 3 4 12 -7 117 249 108 264 -4 7 -3 9 3 6 9
-6 36 57 33 77 -1 5 2 12 7 15 15 10 135 353 129 368 -3 8 -2 12 2 9 11 -6 75
191 67 204 -3 5 -1 10 6 10 6 0 9 8 6 20 -3 11 -2 18 2 16 11 -7 114 361 105
375 -2 4 1 9 6 11 6 2 12 14 14 28 2 14 6 32 9 40 4 8 8 27 11 41 2 14 13 64
24 110 114 471 191 957 238 1509 22 255 30 981 15 1232 -36 579 -102 1080
-202 1534 -11 51 -22 105 -25 120 -13 73 -87 360 -95 370 -5 6 -7 13 -4 16 4
4 -40 162 -110 395 -15 51 -32 90 -36 87 -4 -2 -6 5 -4 16 2 11 -1 20 -6 20
-6 0 -8 4 -5 9 9 14 -86 281 -97 274 -6 -3 -7 -1 -3 6 9 15 -43 163 -55 155
-5 -3 -6 1 -4 9 6 14 -41 134 -148 382 -85 197 -99 225 -109 219 -4 -3 -5 2
-2 10 3 8 -8 41 -24 73 -16 32 -72 144 -124 248 -118 235 -303 567 -319 573
-5 2 -9 9 -9 15 0 27 -383 617 -401 617 -5 0 -8 3 -7 8 4 14 -34 62 -45 55 -5
-3 -7 -1 -3 5 3 6 -1 17 -9 25 -8 9 -15 18 -15 22 0 8 -211 285 -217 285 -2 0
-1 -5 3 -12 4 -7 3 -8 -5 -4 -6 4 -9 12 -5 17 5 8 -26 50 -98 134 -9 11 -52
63 -95 115 -120 147 -264 305 -275 302 -5 -1 -7 2 -3 7 8 14 -454 480 -662
668 -224 202 -522 445 -535 437 -6 -4 -8 -2 -5 3 8 12 -97 95 -107 86 -3 -4
-6 -1 -6 6 0 7 -5 9 -12 5 -6 -4 -8 -3 -5 3 7 11 -159 136 -180 136 -7 0 -11
4 -10 8 2 7 -132 107 -174 129 -13 7 -26 16 -29 20 -6 8 -189 128 -342 224
-62 38 -113 64 -119 60 -7 -4 -9 -3 -6 3 6 9 -73 61 -82 54 -2 -1 -7 2 -10 7
-12 19 -114 73 -127 68 -8 -3 -13 0 -11 5 3 14 -152 101 -166 92 -5 -3 -7 -2
-4 4 8 12 -61 46 -75 37 -6 -4 -8 -2 -4 4 3 6 -8 15 -28 22 -19 6 -36 15 -38
19 -3 9 -350 180 -470 231 -40 17 -92 40 -114 50 -123 56 -240 100 -251 95 -9
-3 -11 0 -7 7 5 8 2 9 -10 5 -9 -4 -15 -3 -11 2 3 5 -12 15 -32 21 -21 6 -58
21 -82 31 -24 11 -50 18 -58 15 -8 -3 -12 -2 -9 2 5 9 -167 74 -201 76 -11 1
-19 4 -17 7 1 3 -97 38 -219 77 -293 93 -366 114 -377 107 -6 -3 -10 -1 -10 5
0 7 -7 10 -15 6 -8 -3 -15 -2 -15 3 0 9 -99 33 -110 26 -5 -3 -10 -1 -12 4 -4
12 -423 111 -608 145 -47 8 -98 18 -115 21 -95 18 -148 25 -153 21 -3 -3 -10
-2 -16 3 -18 13 -366 62 -612 86 -356 34 -618 45 -993 43 -207 -1 -405 -3
-441 -5z m1255 -62 c297 -26 595 -63 825 -102 96 -17 189 -33 205 -35 42 -7
58 -11 165 -34 52 -11 127 -27 165 -35 39 -8 96 -21 129 -30 45 -12 62 -13 72
-4 11 9 13 9 9 -3 -4 -10 10 -17 57 -28 35 -7 65 -14 68 -15 3 -1 23 -7 45
-13 235 -69 358 -101 368 -96 7 4 9 4 5 -1 -6 -6 181 -75 242 -89 8 -1 22 -6
30 -9 8 -4 65 -24 125 -46 61 -22 134 -49 164 -60 30 -11 58 -18 62 -15 5 3 9
1 9 -4 0 -5 44 -26 98 -47 53 -20 120 -48 149 -61 28 -13 54 -24 57 -24 24 0
586 -270 796 -382 122 -66 445 -255 578 -340 68 -43 129 -75 134 -71 7 3 8 1
4 -5 -8 -13 27 -34 40 -24 5 4 6 3 2 -2 -4 -5 52 -49 125 -99 73 -49 202 -141
287 -205 85 -63 160 -115 167 -115 6 0 11 -3 10 -7 -1 -4 45 -45 103 -91 110
-88 373 -310 451 -382 149 -137 273 -256 371 -354 61 -62 116 -109 121 -106 6
3 7 2 4 -3 -3 -6 26 -43 64 -84 65 -70 322 -358 361 -404 10 -12 46 -55 80
-96 34 -41 65 -74 70 -72 4 1 7 -2 6 -7 -3 -11 133 -191 144 -191 4 0 8 -4 8
-10 0 -5 44 -69 99 -142 54 -73 133 -185 176 -248 43 -63 85 -121 94 -128 9
-7 14 -14 11 -15 -3 -1 32 -59 76 -129 45 -70 84 -125 88 -123 3 3 4 2 1 -1
-7 -10 24 -64 37 -64 6 0 9 -3 5 -6 -3 -3 24 -56 60 -117 124 -211 226 -402
353 -660 69 -141 130 -254 134 -250 4 4 4 0 1 -8 -3 -9 12 -54 33 -100 22 -46
47 -105 57 -132 9 -26 23 -53 30 -61 8 -7 12 -16 9 -18 -2 -3 5 -27 17 -54 12
-27 23 -51 23 -54 5 -22 50 -130 55 -130 3 0 7 -11 7 -24 1 -13 8 -38 17 -57
8 -19 27 -70 42 -114 15 -44 32 -91 38 -105 5 -14 11 -31 13 -38 1 -7 18 -61
37 -120 20 -59 59 -188 87 -287 29 -99 55 -187 58 -195 2 -8 6 -22 7 -30 2 -8
21 -88 44 -177 23 -89 41 -171 41 -182 0 -12 3 -21 8 -21 4 0 7 -10 8 -22 1
-13 19 -115 42 -228 91 -457 148 -915 169 -1342 3 -71 9 -128 12 -128 3 0 3
-213 0 -472 -7 -491 -23 -762 -69 -1128 -36 -286 -102 -670 -151 -885 -69
-302 -90 -387 -145 -578 -14 -48 -23 -91 -19 -96 3 -5 1 -11 -4 -13 -12 -4
-63 -177 -56 -188 3 -5 1 -10 -4 -12 -5 -1 -29 -64 -54 -138 -121 -362 -232
-641 -414 -1040 -102 -223 -389 -760 -489 -913 -13 -20 -21 -37 -17 -37 3 0
-3 -10 -14 -22 -39 -45 -124 -189 -117 -200 4 -6 3 -8 -3 -5 -11 7 -106 -129
-106 -150 0 -7 -2 -11 -5 -9 -2 3 -43 -50 -90 -117 -76 -109 -300 -410 -344
-462 -89 -107 -136 -170 -132 -177 3 -5 1 -7 -4 -6 -5 2 -56 -51 -112 -117
-57 -66 -127 -146 -157 -178 -29 -32 -50 -63 -47 -69 4 -6 2 -8 -3 -5 -6 4
-76 -62 -156 -146 -150 -157 -240 -246 -339 -337 -32 -29 -55 -57 -52 -62 3
-4 1 -7 -3 -6 -13 4 -83 -59 -75 -67 4 -4 3 -5 -3 -3 -5 1 -67 -47 -136 -107
-104 -91 -125 -113 -115 -125 9 -13 8 -13 -4 -3 -13 10 -25 4 -71 -35 -86 -73
-213 -174 -341 -271 -65 -49 -114 -92 -110 -96 4 -3 2 -5 -4 -3 -10 3 -278
-179 -316 -214 -10 -10 -21 -18 -25 -19 -5 -1 -7 -5 -5 -11 1 -5 -2 -7 -7 -3
-13 7 -92 -45 -85 -56 3 -5 -1 -6 -9 -4 -7 3 -25 -5 -40 -19 -14 -13 -27 -22
-29 -21 -2 2 -48 -25 -103 -60 -105 -67 -508 -300 -537 -311 -10 -3 -16 -10
-13 -14 3 -4 -1 -7 -8 -7 -6 1 -136 -60 -287 -135 -811 -402 -1598 -666 -2490
-837 -206 -40 -647 -107 -760 -116 -30 -3 -131 -12 -225 -20 -326 -28 -492
-35 -845 -35 -369 0 -519 7 -903 41 -125 11 -232 17 -237 14 -6 -3 -10 -2 -10
3 0 5 -46 14 -102 21 -556 67 -1215 215 -1782 401 -82 27 -153 47 -157 44 -4
-2 -9 -1 -11 4 -5 13 -389 152 -401 145 -5 -3 -7 -2 -4 4 3 5 -11 15 -31 23
-183 65 -732 323 -1000 468 -73 40 -138 70 -144 66 -7 -5 -8 -3 -3 6 6 10 4
12 -9 7 -9 -4 -15 -3 -12 2 3 5 -47 40 -112 77 -143 83 -352 213 -489 306 -57
38 -103 65 -103 61 0 -4 -6 0 -12 9 -17 21 -125 98 -137 98 -5 0 -11 3 -13 8
-6 13 -105 82 -112 77 -3 -3 -4 -2 -1 2 3 3 -44 43 -103 87 -92 68 -260 202
-377 299 -16 14 -33 23 -38 20 -4 -2 -6 -1 -5 4 2 5 -35 42 -82 83 -46 41
-118 105 -159 142 -41 37 -79 64 -84 61 -6 -3 -7 -2 -4 4 7 11 -252 260 -266
255 -5 -1 -6 2 -3 7 3 5 -6 20 -21 33 -16 13 -49 47 -75 75 -26 28 -50 48 -54
44 -4 -3 -4 -1 -1 5 4 6 -15 32 -41 56 -26 25 -85 88 -132 139 -46 52 -88 93
-92 92 -4 -2 -7 0 -5 5 1 4 -54 75 -124 157 -163 196 -279 343 -424 540 -107
145 -324 461 -350 510 -21 38 -70 110 -77 113 -5 2 -8 9 -8 15 0 20 -56 97
-65 90 -4 -5 -5 -3 -2 4 4 6 -43 98 -103 205 -124 216 -314 589 -411 805 -35
78 -67 139 -71 137 -4 -3 -5 1 -2 9 3 8 -7 41 -21 73 -44 97 -124 301 -172
434 -49 137 -163 476 -168 500 -11 52 -70 236 -77 238 -4 2 -6 7 -3 12 3 4 -6
50 -20 102 -24 91 -67 268 -105 438 -46 199 -123 650 -153 895 -2 17 -17 170
-33 340 -27 296 -28 334 -28 840 0 494 2 550 27 820 22 244 41 409 71 625 6
45 34 204 51 295 9 47 10 71 3 74 -6 2 -6 6 2 11 6 4 22 59 35 121 13 63 33
159 45 214 28 127 27 120 12 117 -8 -1 -11 2 -7 8 3 6 10 8 15 5 5 -3 14 14
20 37 5 24 19 76 30 116 12 40 18 77 15 82 -4 6 -1 10 5 10 6 0 10 8 8 18 -1
9 0 22 4 27 3 6 27 82 53 170 26 88 64 213 86 279 21 65 36 123 32 129 -3 6
-1 7 5 3 8 -4 13 1 14 13 0 12 1 27 2 34 1 6 4 14 8 17 4 3 29 68 57 145 27
77 72 195 99 262 28 67 47 124 44 127 -3 3 0 6 6 6 6 0 16 17 23 37 37 114
311 678 435 898 31 55 56 106 57 113 0 6 4 12 9 12 4 0 8 5 8 11 0 6 7 17 16
26 8 9 13 22 10 30 -3 8 -2 12 3 9 4 -3 17 11 27 32 10 20 25 43 32 50 7 8 10
18 7 23 -4 5 -2 9 2 9 5 0 28 33 53 73 24 39 76 121 114 182 39 60 70 113 68
117 -1 4 2 8 7 8 11 0 64 81 64 97 0 7 2 11 5 9 8 -9 212 286 205 297 -3 5 -1
7 4 4 6 -4 48 42 94 106 46 61 94 123 105 137 12 14 62 75 111 135 50 61 147
175 216 254 70 79 124 149 120 154 -3 6 -1 7 4 4 6 -4 65 50 131 121 271 288
603 595 932 861 153 124 464 360 487 368 7 3 10 10 6 16 -3 5 -1 7 4 4 6 -4
23 5 37 18 15 14 29 25 32 25 2 0 70 44 152 98 81 54 168 111 194 127 26 16
45 32 43 35 -2 4 2 7 9 7 23 0 86 44 80 55 -4 7 -2 8 4 4 10 -6 156 70 185 98
7 6 18 12 26 14 7 1 38 19 70 39 31 21 59 37 62 38 20 1 246 131 242 139 -4 5
-1 6 5 2 14 -9 143 55 135 67 -3 6 -1 7 4 4 6 -4 52 14 103 39 133 65 284 133
450 203 80 34 156 67 170 73 14 6 30 12 35 14 10 2 110 40 185 70 48 19 95 36
95 34 0 -2 72 25 120 45 11 4 25 9 32 11 42 8 239 78 241 86 2 4 8 5 13 2 6
-3 18 -2 27 2 9 4 22 8 27 9 6 2 60 17 120 35 61 18 143 41 184 51 41 11 97
26 125 35 28 8 62 17 76 19 14 2 62 12 105 23 44 11 107 26 140 32 33 7 66 20
73 29 7 9 10 10 6 2 -6 -11 -2 -13 17 -7 13 4 44 10 69 13 25 3 46 9 48 13 2
4 12 6 23 3 10 -3 25 0 32 6 8 6 17 8 20 4 4 -3 13 -1 20 5 8 7 16 9 19 7 3
-3 84 8 179 24 96 17 199 33 229 36 30 4 118 15 195 25 77 10 174 21 215 25
41 3 118 10 170 15 52 5 159 12 238 16 78 4 142 10 142 13 0 3 217 3 482 0
371 -5 539 -11 723 -28z"/>
<path d="M12375 21489 c-558 -48 -1107 -214 -1562 -473 -1076 -613 -1776
-1666 -1919 -2891 -13 -109 -18 -226 -18 -425 0 -298 14 -466 60 -705 180
-937 695 -1764 1452 -2332 65 -48 128 -95 141 -103 22 -15 16 -18 -150 -85
-455 -183 -932 -455 -1313 -749 -370 -286 -750 -667 -1019 -1023 -128 -170
-337 -497 -337 -528 0 -37 191 -264 366 -436 223 -218 468 -398 826 -608 323
-190 710 -449 936 -625 199 -156 466 -421 666 -661 388 -465 655 -937 800
-1418 36 -118 86 -346 86 -391 0 -53 16 -23 47 90 168 599 626 1300 1185 1811
329 301 659 540 1383 1003 853 546 1292 866 1571 1144 182 183 258 274 386
466 214 320 332 649 345 956 8 190 9 189 -95 266 -126 94 -336 235 -492 328
-181 110 -546 290 -758 375 -167 67 -173 70 -151 85 84 55 281 211 397 314
687 612 1124 1456 1238 2396 25 203 25 657 1 860 -69 561 -248 1082 -532 1546
-600 980 -1605 1637 -2735 1788 -265 36 -569 45 -805 25z m1086 -3197 c200
-56 362 -233 419 -459 59 -229 17 -555 -86 -666 -14 -16 -28 -27 -29 -25 -2 2
5 35 16 73 26 93 25 207 -1 278 -51 137 -215 215 -434 206 -73 -4 -92 -9 -161
-44 -87 -44 -161 -110 -190 -170 -30 -61 -27 -183 7 -255 39 -84 98 -144 189
-191 44 -23 78 -43 76 -46 -3 -2 -33 5 -68 16 -85 27 -180 41 -270 40 -173 -3
-321 105 -379 274 -54 161 -24 453 61 599 72 123 193 244 309 310 51 29 158
66 228 78 69 13 237 3 313 -18z m748 -1007 c78 -298 139 -649 167 -965 20
-227 15 -669 -11 -850 -58 -413 -201 -777 -399 -1014 l-41 -49 52 6 c100 12
220 94 317 217 l28 35 -6 -136 c-10 -238 -58 -515 -130 -754 -144 -475 -403
-856 -734 -1083 -81 -56 -293 -167 -352 -186 l-25 -8 30 -8 c50 -13 179 -11
257 4 183 35 358 138 488 284 l50 57 0 -41 c0 -23 -7 -79 -16 -125 -87 -462
-466 -1000 -1007 -1433 -514 -411 -891 -858 -1122 -1331 -168 -341 -230 -601
-223 -928 1 -91 0 -160 -4 -154 -14 25 -50 184 -73 321 -43 255 -58 490 -52
791 11 515 81 933 238 1415 88 268 166 456 310 740 113 223 204 378 398 675
761 1163 1312 2227 1459 2820 23 93 46 224 40 231 -3 2 -28 -49 -57 -114 -72
-160 -269 -543 -391 -762 -260 -466 -512 -853 -840 -1290 -710 -946 -1212
-1883 -1414 -2640 -101 -381 -117 -793 -40 -1044 25 -80 -109 145 -205 344
-168 351 -254 672 -286 1074 -54 691 -9 1272 141 1796 194 678 576 1201 1123
1540 l84 52 -7 -48 c-54 -389 -71 -647 -63 -964 5 -209 31 -557 43 -569 7 -8
46 33 71 76 59 101 137 374 168 585 8 59 20 236 25 395 12 330 23 461 51 587
73 328 194 508 614 907 247 236 590 577 699 694 362 395 541 714 572 1020 l6
70 14 -45 c8 -25 32 -113 53 -195z"/>
<path d="M16434 14200 c49 -638 -28 -1222 -206 -1560 -207 -394 -622 -858
-1084 -1212 -196 -151 -421 -300 -644 -428 -280 -161 -764 -480 -1070 -705
-808 -594 -1365 -1169 -1625 -1676 -167 -326 -309 -805 -374 -1264 -33 -227
-42 -366 -42 -615 0 -312 30 -592 91 -849 11 -46 19 -86 16 -88 -2 -2 -32 35
-67 83 -90 125 -604 766 -789 984 -274 324 -434 496 -809 870 -572 572 -1019
955 -1621 1389 -134 97 -123 85 55 -65 658 -551 1494 -1355 2100 -2019 176
-193 670 -815 1264 -1592 106 -139 194 -253 196 -253 2 0 -21 56 -50 124 -137
317 -223 587 -270 851 -30 162 -19 738 20 1061 81 672 423 1371 971 1985 120
134 309 319 449 440 108 93 311 243 775 572 279 198 429 300 1017 684 467 306
793 571 1066 868 201 218 357 434 478 662 34 63 63 112 65 110 14 -13 -61
-310 -125 -497 -145 -426 -378 -810 -665 -1096 -172 -171 -694 -629 -866 -759
-52 -39 -219 -156 -370 -260 -673 -460 -870 -613 -1166 -909 -266 -266 -428
-463 -618 -753 -144 -220 -280 -473 -379 -704 -46 -108 -150 -399 -144 -405 2
-2 27 58 57 134 70 180 233 501 345 680 289 461 670 865 1090 1157 129 90 192
127 445 262 490 262 816 422 1245 613 660 294 1062 505 1435 753 421 280 785
603 1025 909 47 60 64 76 80 72 60 -14 246 -119 303 -171 77 -68 77 -67 -2
-228 -100 -203 -238 -387 -433 -575 -271 -263 -457 -385 -1163 -762 -396 -212
-756 -397 -1152 -592 -216 -107 -481 -242 -588 -301 -801 -441 -1416 -887
-1697 -1232 -79 -96 -234 -326 -308 -458 -260 -457 -434 -1013 -500 -1595 -25
-225 -16 -227 29 -5 55 267 85 392 142 585 181 613 475 1136 821 1459 183 171
705 541 1123 796 348 211 577 329 1025 525 1189 521 1789 863 2390 1366 128
107 393 363 494 477 l51 59 81 -26 c234 -76 467 -237 597 -414 64 -87 115
-179 109 -195 -3 -7 -56 -33 -118 -56 -1101 -418 -2787 -1847 -5040 -4271
-140 -151 -403 -437 -583 -635 -407 -446 -537 -580 -632 -645 -150 -104 -294
-151 -464 -151 -171 -1 -279 33 -398 125 -68 51 -234 223 -312 321 -612 768
-977 1189 -1569 1808 -720 754 -1567 1504 -2226 1972 -281 200 -726 476 -1077
669 -334 183 -808 406 -1141 537 -162 63 -156 50 -83 205 67 142 136 231 224
289 l38 25 141 -45 c306 -98 811 -278 1103 -395 370 -147 808 -385 1239 -673
657 -439 1234 -918 1945 -1617 l240 -235 -104 128 c-366 455 -774 850 -1340
1298 -919 729 -2003 1361 -2966 1730 -60 23 -115 47 -123 53 -11 8 -13 34 -8
126 6 123 25 212 64 300 25 57 99 160 115 160 5 0 46 -26 91 -58 251 -176 580
-362 932 -525 399 -184 1877 -917 2060 -1021 1059 -604 1863 -1423 2235 -2280
30 -69 56 -122 58 -117 6 19 -83 344 -145 526 -219 644 -540 1217 -962 1720
-114 135 -360 383 -506 510 -235 203 -361 291 -895 627 -335 210 -775 503
-925 616 -337 253 -767 661 -1026 972 -184 222 -317 422 -415 624 -110 228
-155 395 -158 588 0 64 -2 115 -4 113 -2 -2 -15 -56 -29 -122 -34 -163 -44
-529 -19 -703 73 -501 323 -1049 683 -1495 177 -219 432 -459 686 -642 65 -47
116 -88 113 -90 -6 -6 -231 98 -421 196 -628 323 -1084 691 -1239 1000 -39 76
-76 190 -76 231 0 27 -22 60 -40 60 -14 0 -100 -122 -150 -213 -70 -125 -128
-268 -165 -402 -47 -172 -59 -276 -53 -470 3 -91 2 -165 -1 -165 -3 0 -77 17
-163 37 -155 36 -158 37 -173 17 -94 -119 -238 -376 -321 -574 -26 -60 -46
-94 -55 -94 -8 1 -89 23 -180 48 -92 25 -231 61 -310 78 -133 30 -158 32 -329
32 -174 0 -190 -1 -265 -27 -211 -70 -370 -228 -436 -429 -24 -76 -21 -108 15
-131 13 -9 107 -39 208 -67 1640 -454 3377 -1317 5053 -2509 617 -438 1288
-977 1614 -1295 187 -183 648 -660 1023 -1057 174 -185 336 -353 360 -373 66
-58 195 -141 278 -180 269 -126 598 -126 824 0 86 48 263 242 553 604 812
1017 1838 1962 3141 2893 866 619 1998 1302 2622 1583 352 158 757 282 1153
353 317 58 491 73 841 77 358 3 349 1 328 73 -45 148 -511 459 -862 574 -184
61 -406 97 -596 97 -135 0 -358 -51 -590 -135 l-94 -34 -41 72 c-173 301 -400
630 -610 882 -113 136 -383 406 -499 498 -132 105 -277 199 -395 257 -98 48
-270 110 -303 110 -11 -1 -29 -27 -52 -78 -96 -212 -261 -490 -417 -704 -449
-616 -1024 -1083 -1653 -1343 -130 -54 -371 -137 -378 -130 -2 2 94 107 214
232 422 439 658 699 773 848 339 440 588 953 695 1435 52 236 61 326 61 615 0
307 -11 399 -75 650 -35 140 -104 342 -130 382 -9 14 -10 0 -6 -57z"/>
<path d="M17231 9549 c-927 -284 -1823 -759 -2519 -1336 -641 -531 -1164
-1150 -1552 -1837 -101 -179 -272 -536 -256 -536 2 0 36 55 77 123 936 1566
2223 2753 3604 3324 60 25 269 103 464 174 195 71 357 131 359 134 10 10 -17
3 -177 -46z"/>
<path d="M13555 7829 c-298 -259 -556 -591 -738 -946 -226 -445 -342 -909
-351 -1413 -2 -102 -2 -158 0 -125 43 713 275 1378 691 1973 92 131 266 345
392 482 46 49 82 90 80 90 -2 0 -35 -28 -74 -61z"/>
<path d="M17872 22551 c-44 -12 -80 -47 -88 -87 -5 -28 9 -99 33 -160 6 -15 0
-17 -51 -11 -129 13 -237 -27 -277 -103 -24 -45 -24 -123 0 -177 67 -147 316
-293 500 -293 33 0 38 -4 64 -53 15 -30 40 -68 55 -86 l27 -33 78 15 c43 8 81
17 84 20 3 3 -4 18 -15 34 -11 15 -31 51 -46 80 l-26 52 37 12 c50 16 124 62
120 73 -2 6 -33 36 -70 69 l-66 59 -46 -22 c-25 -12 -48 -21 -49 -19 -2 2 -17
48 -34 102 l-30 98 92 -7 c107 -8 155 4 186 43 24 31 26 89 6 138 -59 140
-344 291 -484 256z m224 -150 c71 -32 97 -96 52 -125 -13 -7 -46 -17 -75 -20
l-52 -7 -16 53 c-20 69 -19 84 7 102 28 20 34 20 84 -3z m-224 -265 c7 -11 68
-225 68 -240 0 -10 -75 -1 -133 16 -48 14 -122 82 -132 118 -13 54 28 104 98
120 38 8 89 1 99 -14z"/>
<path d="M6645 22413 c-63 -13 -180 -61 -249 -102 -264 -155 -377 -391 -281
-586 62 -128 178 -211 312 -222 229 -19 556 173 657 387 28 58 31 75 31 155 0
80 -3 97 -31 155 -53 111 -121 174 -224 204 -49 15 -166 20 -215 9z m123 -182
c70 -36 134 -130 148 -218 16 -103 -76 -232 -214 -300 -66 -33 -83 -38 -152
-38 -68 0 -82 3 -126 30 -27 18 -65 53 -85 83 -80 114 -72 214 26 320 117 127
291 180 403 123z"/>
<path d="M5745 21867 c-84 -62 -101 -79 -107 -108 -4 -19 -10 -114 -14 -212
l-6 -179 -27 7 c-45 11 -364 75 -376 75 -13 0 -205 -158 -205 -169 0 -4 53
-13 118 -20 119 -13 430 -57 468 -66 12 -3 57 -49 100 -102 42 -54 90 -112
104 -129 l27 -31 86 65 85 66 -101 132 -101 132 3 54 c3 63 37 406 49 496 5
34 6 62 3 62 -3 0 -51 -33 -106 -73z"/>
<path d="M18924 21494 c-215 -289 -234 -317 -217 -329 73 -51 314 -241 443
-349 l154 -129 43 49 c23 27 43 52 43 56 0 7 -220 192 -355 297 -44 35 -81 65
-83 66 -2 1 84 115 191 252 106 137 196 254 200 259 5 10 -159 144 -176 144
-4 0 -113 -142 -243 -316z"/>
<path d="M19672 20888 l-261 -293 77 -72 c42 -40 80 -72 84 -73 12 0 540 570
536 580 -4 13 -157 150 -167 150 -4 0 -125 -132 -269 -292z"/>
<path d="M20014 20603 c-143 -148 -265 -276 -273 -285 -12 -16 13 -44 233
-271 154 -158 266 -265 299 -284 125 -76 254 -61 311 36 24 41 25 130 2 185
-9 21 -16 39 -16 41 0 1 24 -6 53 -16 65 -23 86 -23 137 -3 62 25 84 69 78
157 -6 87 -32 144 -113 243 -66 80 -433 464 -444 464 -5 0 -125 -120 -267
-267z m563 -240 c72 -84 86 -148 37 -180 -47 -30 -79 -11 -236 145 -82 80
-148 151 -148 156 0 6 26 37 58 69 l57 59 93 -99 c51 -54 114 -122 139 -150z
m-329 -106 c61 -65 126 -139 143 -163 53 -77 49 -153 -8 -175 -54 -20 -89 3
-250 169 l-152 157 67 68 c37 37 72 66 78 65 5 -2 60 -56 122 -121z"/>
<path d="M4160 20466 c-41 -45 -74 -86 -73 -90 0 -4 131 -127 289 -272 l288
-263 160 167 c89 91 214 218 279 281 65 63 116 118 115 122 -2 4 -23 28 -47
54 l-44 47 -206 -205 -206 -206 -235 225 c-129 123 -237 224 -240 223 -3 0
-39 -37 -80 -83z"/>
<path d="M20805 19744 c-154 -129 -289 -243 -299 -254 -18 -18 -17 -20 49
-104 38 -47 70 -86 72 -86 2 0 61 46 130 102 l126 101 34 -39 c18 -21 47 -67
65 -102 31 -62 31 -63 24 -175 -3 -61 -16 -161 -29 -222 l-23 -110 140 -213
141 -212 60 5 c33 3 76 8 97 10 41 6 23 30 169 -223 49 -84 89 -157 89 -162 0
-5 -23 -45 -51 -90 l-51 -80 52 -102 c29 -57 56 -107 60 -111 13 -14 486 763
476 782 -1 3 -33 58 -69 121 l-66 115 -188 -7 c-204 -7 -441 -23 -597 -39 -54
-6 -100 -8 -102 -6 -2 2 12 75 32 163 35 155 45 273 28 326 -5 17 6 11 47 -26
74 -67 136 -96 202 -96 120 0 190 103 165 242 -5 29 -28 88 -51 132 -53 99
-426 598 -446 595 -3 0 -132 -106 -286 -235z m446 -187 c127 -171 134 -183
147 -231 27 -95 -56 -138 -136 -71 -35 29 -255 314 -256 332 -1 13 112 112
129 112 6 1 57 -63 116 -142z m637 -1109 c-8 -13 -43 -71 -77 -130 -35 -60
-66 -110 -70 -112 -6 -4 -151 234 -151 248 0 6 85 11 219 14 l93 2 -14 -22z"/>
<path d="M3590 19795 l-82 -105 16 -40 c68 -170 354 -780 365 -780 3 0 36 43
73 95 l67 94 -41 86 c-30 64 -39 91 -32 105 10 22 176 237 226 292 l33 38 80
-20 c44 -11 87 -19 96 -20 14 0 165 167 157 175 -12 11 -632 144 -839 179 -36
6 -36 6 -119 -99z m318 -153 c73 -15 133 -31 134 -37 1 -11 -153 -214 -163
-215 -5 0 -104 210 -126 268 -7 16 1 15 155 -16z"/>
<path d="M3173 19116 c-29 -14 -73 -45 -98 -71 -53 -52 -172 -232 -299 -448
-111 -190 -130 -227 -119 -238 18 -18 668 -387 674 -383 4 2 24 35 45 72 20
37 100 173 178 302 167 281 185 321 186 413 0 187 -135 269 -282 171 -28 -19
-51 -34 -52 -34 -1 0 -2 30 -2 68 1 114 -45 172 -136 172 -24 0 -65 -11 -95
-24z m62 -221 c47 -46 36 -80 -102 -312 l-97 -162 -36 21 c-19 12 -52 32 -73
45 l-37 23 16 33 c25 48 169 278 195 311 24 30 76 66 97 66 7 0 24 -11 37 -25z
m302 -147 c27 -26 31 -80 8 -134 -16 -38 -190 -330 -211 -353 -10 -11 -26 -5
-93 35 -45 27 -81 52 -81 57 0 13 142 243 192 312 74 101 137 129 185 83z"/>
<path d="M2518 18128 c-30 -45 -99 -190 -96 -200 2 -5 158 -90 348 -188 l344
-178 53 99 c29 55 53 103 53 107 0 6 -639 362 -680 380 -4 1 -14 -8 -22 -20z"/>
<path d="M22095 17685 c-187 -96 -341 -178 -343 -184 -3 -10 95 -211 103 -211
3 0 63 29 133 64 71 35 136 66 146 68 12 2 24 -14 46 -62 51 -114 56 -154 31
-262 -12 -51 -44 -149 -71 -218 -28 -69 -50 -131 -50 -139 0 -19 93 -261 101
-261 3 0 38 76 77 168 70 164 92 238 92 310 l0 35 38 -59 c72 -111 145 -164
224 -164 65 0 108 28 141 91 27 50 29 60 24 144 -3 60 -13 115 -30 167 -55
161 -294 688 -312 688 -5 -1 -163 -79 -350 -175z m447 -350 c93 -212 100 -289
32 -315 -32 -13 -74 8 -104 50 -23 32 -190 398 -190 416 0 6 35 27 77 47 l78
37 19 -38 c10 -20 50 -109 88 -197z"/>
<path d="M2363 17620 c-118 -53 -203 -208 -404 -733 -66 -175 -67 -178 -46
-186 12 -4 173 -65 357 -134 184 -69 341 -127 349 -129 9 -2 27 32 56 107 23
61 41 113 39 116 -2 3 -69 32 -149 64 -87 36 -145 64 -145 73 0 30 73 169 108
205 48 49 149 104 292 157 63 24 120 48 126 54 18 17 118 235 111 242 -6 7
-288 -87 -342 -114 -16 -8 -53 -32 -81 -53 l-52 -38 14 52 c22 84 18 196 -9
247 -42 80 -137 110 -224 70z m59 -240 c31 -24 39 -58 26 -113 -7 -32 -152
-410 -164 -425 -2 -3 -153 57 -163 65 -6 4 80 222 131 333 39 86 76 135 113
150 29 12 30 12 57 -10z"/>
<path d="M22850 16729 c-39 -94 -179 -413 -210 -481 -11 -24 -33 -34 -166 -78
-85 -29 -154 -57 -154 -63 0 -23 71 -237 78 -234 4 3 75 26 159 51 l151 47
148 -87 c81 -47 210 -126 286 -174 76 -49 138 -86 138 -82 0 4 -18 73 -41 154
-31 111 -46 150 -63 161 -11 8 -101 56 -198 106 l-178 93 102 198 102 198 -48
133 c-27 74 -52 140 -56 148 -4 8 -23 -24 -50 -90z"/>
<path d="M1836 16552 c-11 -19 -145 -444 -200 -637 -82 -283 -110 -394 -104
-401 9 -8 118 -37 123 -32 3 3 28 90 56 194 28 104 52 190 54 192 1 2 141 -38
311 -88 169 -49 311 -87 314 -83 9 11 74 233 69 236 -2 2 -137 45 -299 97
-162 51 -299 97 -305 102 -6 5 12 75 49 186 32 97 59 181 60 185 1 11 -122 58
-128 49z"/>
<path d="M5565 5159 c-132 -147 -239 -273 -237 -279 1 -6 -2 -9 -7 -6 -10 7
-211 -215 -211 -233 0 -6 -4 -11 -10 -11 -16 0 -128 -179 -146 -232 -31 -95
-1 -345 39 -322 9 5 9 4 0 -6 -12 -14 2 -60 19 -60 5 0 7 -4 4 -9 -17 -26 222
-310 247 -294 6 3 7 1 4 -4 -4 -6 19 -30 49 -54 31 -24 62 -49 68 -56 32 -30
208 -144 271 -176 141 -71 305 -105 415 -88 75 12 159 50 217 97 74 61 290
354 277 376 -4 6 -3 8 2 5 13 -8 337 491 328 505 -4 6 -3 8 3 5 6 -4 36 32 68
79 47 71 54 89 43 99 -7 6 -77 55 -155 109 l-142 96 -147 -207 c-81 -115 -218
-307 -303 -427 -86 -121 -186 -253 -223 -293 -38 -40 -68 -71 -68 -68 0 2 -17
-3 -37 -12 -114 -48 -293 22 -454 177 -100 97 -142 178 -143 279 0 86 19 126
131 267 48 60 90 111 93 114 3 3 31 37 63 75 32 39 67 80 79 93 13 12 19 22
14 22 -4 0 1 8 13 18 11 9 99 111 194 226 l173 210 -70 60 c-39 33 -105 90
-146 127 l-75 66 -240 -268z"/>
<path d="M18480 4892 c-69 -53 -136 -104 -148 -112 -23 -15 -23 -15 104 -190
69 -96 132 -179 139 -185 6 -5 14 -15 16 -22 10 -29 265 -370 273 -365 5 3 6
1 3 -5 -8 -13 37 -75 48 -65 5 4 6 2 2 -3 -6 -11 56 -119 64 -111 3 3 5 -3 6
-12 1 -9 9 -37 18 -62 14 -37 15 -54 6 -99 -6 -29 -8 -58 -4 -64 3 -5 1 -7 -4
-4 -6 4 -17 -7 -24 -25 -19 -46 -114 -138 -196 -192 -158 -102 -285 -130 -395
-87 -16 6 -28 9 -28 7 0 -13 -78 68 -112 117 -23 31 -45 57 -49 57 -5 0 -8 4
-6 9 1 5 -50 92 -113 195 -63 102 -119 194 -125 204 -70 124 -199 321 -207
316 -7 -4 -8 -2 -4 5 9 14 -62 133 -78 129 -31 -8 -214 -123 -209 -131 3 -6 1
-7 -4 -4 -6 4 -32 -5 -57 -19 l-46 -26 35 -61 c19 -34 115 -204 212 -378 98
-174 181 -315 186 -312 4 2 6 1 5 -4 -5 -16 24 -73 35 -66 5 3 7 1 4 -4 -11
-18 173 -282 197 -284 3 0 19 -13 36 -29 38 -36 118 -66 209 -81 123 -19 305
20 446 94 33 18 62 35 63 39 2 5 9 8 17 8 21 0 206 126 197 135 -4 5 -2 5 5 1
16 -9 146 97 224 184 72 79 128 166 160 249 27 67 41 259 19 246 -8 -5 -11 -4
-6 3 9 14 -4 63 -14 57 -5 -3 -6 3 -4 12 6 22 -106 204 -119 196 -6 -3 -7 -2
-4 4 5 8 -60 105 -110 164 -7 7 -38 47 -69 87 -30 39 -60 72 -66 72 -6 0 -8 3
-5 7 6 6 -46 77 -85 116 -10 10 -18 21 -18 26 0 4 -21 29 -46 55 -25 27 -40
45 -32 41 11 -7 -19 33 -47 60 -5 6 -23 29 -39 53 -17 24 -37 49 -47 55 -9 7
-16 14 -15 17 1 8 -56 80 -63 79 -3 0 -62 -44 -131 -97z"/>
<path d="M7886 3870 c-25 -48 -42 -91 -39 -94 4 -3 1 -6 -5 -6 -13 0 -147
-260 -135 -260 5 0 3 -4 -3 -8 -13 -8 -57 -92 -48 -92 3 0 -2 -7 -10 -16 -9
-8 -14 -20 -11 -25 4 -5 2 -9 -4 -9 -12 0 -55 -80 -44 -80 5 0 3 -4 -3 -8 -12
-7 -165 -307 -163 -318 0 -4 -4 -10 -9 -13 -15 -9 -102 -188 -95 -195 4 -3 1
-6 -6 -6 -8 0 -11 -6 -7 -16 3 -8 2 -13 -2 -10 -7 4 -97 -164 -93 -172 1 -1
-5 -10 -14 -18 -8 -9 -15 -19 -15 -24 0 -14 39 -32 52 -24 6 4 8 3 5 -2 -7
-12 200 -117 214 -109 5 4 9 1 9 -5 0 -6 5 -8 10 -5 6 3 10 2 10 -3 0 -8 42
-32 56 -32 3 0 23 39 46 88 22 48 65 139 95 201 30 63 55 123 56 132 1 10 4
16 7 14 7 -4 63 120 60 131 -1 4 2 10 7 13 16 11 73 143 66 154 -3 5 -1 7 4 4
14 -9 37 48 27 64 -4 7 -3 10 3 6 10 -6 86 143 86 169 0 10 4 11 14 3 7 -6 13
-22 13 -36 0 -13 4 -22 9 -19 5 4 7 -2 5 -11 -4 -15 19 -122 101 -468 28 -118
51 -193 59 -188 5 4 6 1 1 -6 -9 -15 74 -313 85 -306 5 3 6 -3 4 -12 -2 -10
15 -79 39 -153 l44 -135 74 -27 c41 -16 81 -25 89 -22 8 3 11 2 7 -3 -4 -4 47
-27 114 -50 67 -24 123 -42 125 -40 2 2 5 12 7 23 2 10 7 26 10 34 22 50 75
224 72 231 -3 4 -1 9 3 11 14 5 105 276 97 289 -5 7 -4 10 1 6 13 -8 88 219
78 235 -4 8 -3 9 2 5 5 -5 62 152 131 359 67 202 122 368 120 369 -1 1 -73 26
-160 57 l-158 55 -11 -26 c-5 -14 -22 -60 -38 -101 -15 -41 -67 -180 -115
-308 -48 -128 -84 -239 -81 -248 3 -8 2 -13 -3 -9 -9 5 -18 -16 -100 -235 -21
-58 -43 -104 -47 -103 -9 2 -122 385 -123 416 -1 10 -4 16 -8 14 -5 -3 -8 7
-9 21 -2 51 -99 430 -108 425 -5 -4 -6 -1 -2 6 5 7 -11 112 -35 233 l-43 221
-51 22 c-27 13 -101 48 -162 78 l-113 56 -44 -89z"/>
<path d="M16468 3708 c-64 -28 -115 -54 -113 -58 3 -4 -3 -7 -13 -6 -9 0 -35
-7 -58 -16 l-41 -17 -7 -508 c-3 -279 -8 -528 -11 -553 -2 -25 -7 -94 -11
-155 l-6 -110 -80 85 c-44 47 -154 171 -246 277 -91 106 -170 189 -175 186 -6
-3 -7 -1 -3 5 3 6 -18 39 -47 74 -29 35 -109 133 -177 218 -67 85 -124 157
-126 159 -8 9 -212 -54 -207 -63 3 -5 1 -6 -5 -2 -11 6 -123 -18 -149 -33 -8
-4 3 -26 36 -68 26 -35 56 -75 67 -89 10 -15 33 -40 49 -57 17 -17 23 -26 15
-22 -8 5 0 -10 18 -33 19 -23 38 -42 43 -42 5 0 8 -4 6 -8 -2 -8 158 -216 195
-254 9 -9 22 -26 28 -38 6 -11 16 -17 22 -14 6 4 8 3 5 -3 -11 -17 369 -457
386 -446 6 3 7 1 3 -5 -6 -10 54 -79 249 -290 9 -10 40 -3 161 39 82 28 150
55 152 60 2 4 10 5 18 2 8 -3 14 1 14 8 0 7 2 10 5 7 3 -3 22 0 43 7 46 16 46
15 66 325 25 373 39 902 31 1165 -4 132 -7 259 -8 283 -1 23 -4 42 -7 42 -3
-1 -58 -24 -122 -52z"/>
<path d="M10745 2922 c-32 -48 -58 -92 -58 -99 0 -7 -2 -11 -5 -8 -3 2 -45
-55 -95 -128 -81 -119 -251 -354 -370 -512 -25 -33 -43 -63 -40 -68 2 -4 0 -6
-5 -5 -6 2 -35 -31 -66 -72 -31 -41 -62 -82 -70 -90 -33 -37 -256 -311 -256
-315 0 -3 -15 -18 -32 -34 -22 -20 -30 -33 -23 -39 13 -13 424 -104 436 -96 5
3 9 12 9 20 0 8 4 14 8 14 11 0 108 132 105 142 -2 5 1 8 7 8 8 0 65 75 69 92
1 4 11 18 23 31 21 24 22 24 92 11 82 -16 371 -61 436 -69 25 -2 97 -12 160
-20 63 -9 122 -14 132 -12 24 7 32 -6 71 -113 19 -52 41 -108 48 -125 6 -16
14 -37 15 -47 2 -9 12 -38 23 -64 16 -41 24 -50 51 -55 48 -10 409 -33 415
-27 8 7 -27 78 -37 78 -5 0 -7 4 -3 9 6 10 -34 101 -48 112 -5 3 -7 8 -5 11 7
10 -96 247 -105 241 -6 -3 -7 -1 -3 5 3 6 -3 34 -15 64 -33 84 -40 103 -41
108 0 3 -5 14 -11 25 -6 11 -12 25 -13 30 -1 6 -36 100 -77 210 -41 110 -87
238 -102 285 -15 47 -32 87 -37 88 -4 2 -6 7 -3 12 3 5 0 21 -7 37 -6 15 -12
30 -12 33 -1 3 -26 85 -56 182 l-55 178 -45 6 c-25 4 -66 8 -91 8 -26 1 -45 4
-42 9 2 4 -9 7 -26 7 -16 0 -52 4 -78 9 -120 23 -104 30 -168 -67z m260 -529
c32 -111 62 -200 67 -197 4 3 5 -1 2 -9 -4 -11 36 -154 64 -226 4 -11 -5 -12
-44 -7 -27 4 -67 9 -89 11 -112 12 -425 65 -425 72 0 2 23 37 50 78 28 41 50
77 50 81 0 4 8 17 18 28 16 18 94 138 216 334 15 24 29 42 30 40 2 -1 30 -94
61 -205z"/>
<path d="M13670 2940 c-47 -5 -112 -11 -145 -14 -33 -3 -80 -9 -105 -13 -25
-3 -48 -6 -51 -5 -4 1 -96 -5 -205 -13 -110 -8 -237 -15 -284 -15 -137 0 -133
2 -125 -94 3 -45 6 -108 6 -141 0 -33 9 -364 19 -735 11 -371 20 -678 20 -682
0 -4 28 -5 63 -3 34 3 129 8 211 11 l148 6 -6 117 c-11 202 -36 566 -41 578
-2 7 1 15 7 19 6 4 8 3 5 -3 -5 -8 43 -10 151 -9 157 1 157 1 222 -30 59 -28
108 -67 299 -234 34 -30 67 -54 72 -52 6 1 8 -2 5 -6 -5 -9 170 -177 183 -177
3 0 17 -12 29 -27 13 -16 29 -25 34 -21 6 3 8 1 5 -4 -12 -19 35 -40 76 -35
20 2 37 8 37 13 0 5 7 6 15 3 14 -6 374 53 384 62 9 8 -34 44 -46 39 -8 -2
-12 -1 -9 4 3 5 -60 67 -141 137 -80 71 -172 152 -203 179 -160 141 -194 162
-380 237 -23 9 -17 13 65 42 106 38 135 53 135 68 0 6 3 8 6 5 10 -10 92 53
125 95 16 20 42 63 56 95 24 51 28 71 28 158 0 113 -15 165 -73 254 -33 50
-140 146 -151 136 -2 -3 -11 1 -20 9 -50 43 -241 64 -421 46z m169 -299 c65
-34 95 -82 99 -163 5 -84 -7 -116 -62 -163 -53 -46 -58 -50 -76 -51 -8 -1 -55
-9 -105 -18 -49 -9 -123 -19 -162 -23 -40 -3 -73 -9 -73 -12 0 -3 -42 -7 -93
-8 -50 -1 -117 -4 -148 -8 l-56 -6 -7 88 c-6 89 -15 224 -19 299 l-2 42 59 6
c32 3 79 6 102 6 24 0 44 3 44 8 0 4 18 6 39 6 22 -1 95 4 163 11 154 17 244
13 297 -14z"/>
</g>
</svg>
